<?xml version="1.0" encoding="UTF-8" standalone="no"?>
<svg
   xmlns:dc="http://purl.org/dc/elements/1.1/"
   xmlns:cc="http://creativecommons.org/ns#"
   xmlns:rdf="http://www.w3.org/1999/02/22-rdf-syntax-ns#"
   xmlns:svg="http://www.w3.org/2000/svg"
   xmlns="http://www.w3.org/2000/svg"
   xmlns:sodipodi="http://sodipodi.sourceforge.net/DTD/sodipodi-0.dtd"
   xmlns:inkscape="http://www.inkscape.org/namespaces/inkscape"
   width="250mm"
   height="100mm"
   viewBox="4.6 0.7 300 120"
   version="1.1"
   id="svg8"
   inkscape:version="1.0.1 (1.0.1+r73)"
   sodipodi:docname="logo.svg">
  <defs
     id="defs2" />
  <sodipodi:namedview
     id="base"
     pagecolor="#ffffff"
     bordercolor="#666666"
     borderopacity="1.0"
     inkscape:pageopacity="1"
     inkscape:pageshadow="2"
     inkscape:zoom="0.7"
     inkscape:cx="196.40485"
     inkscape:cy="262.90515"
     inkscape:document-units="mm"
     inkscape:current-layer="layer1"
     inkscape:document-rotation="0"
     showgrid="false"
     inkscape:window-width="1853"
     inkscape:window-height="1145"
     inkscape:window-x="67"
     inkscape:window-y="27"
     inkscape:window-maximized="1"
     inkscape:pagecheckerboard="false"
     fit-margin-top="0"
     fit-margin-left="0"
     fit-margin-right="0"
     fit-margin-bottom="0"
     scale-x="1.2"
     viewbox-width="74.56491"
     viewbox-x="4.5"
     viewbox-y="0.7"
     viewbox-height="13.65936"
     lock-margins="false" />
  <metadata
     id="metadata5">
    <rdf:RDF>
      <cc:Work
         rdf:about="">
        <dc:format>image/svg+xml</dc:format>
        <dc:type
           rdf:resource="http://purl.org/dc/dcmitype/StillImage" />
        <dc:title />
      </cc:Work>
    </rdf:RDF>
  </metadata>
  <g
     inkscape:label="Layer 1"
     inkscape:groupmode="layer"
     id="layer1"
     transform="translate(-53.001066,-57.968669)">
    <rect
       style="fill:#ffffff;fill-opacity:1;stroke-width:0.318;stroke-miterlimit:4;stroke-dasharray:none"
       id="rect837"
       width="316.11887"
       height="135.76483"
       x="52.195446"
       y="48.828323" />
  </g>
  <g
     inkscape:groupmode="layer"
     id="layer2"
     inkscape:label="Layer 2">
    <text
       xml:space="preserve"
       style="font-style:normal;font-weight:normal;font-size:36.5404px;line-height:1.25;font-family:sans-serif;letter-spacing:0px;word-spacing:0px;fill:#000000;fill-opacity:1;stroke:none;stroke-width:0.913513"
       x="168.02774"
       y="129.90981"
       id="text12"
       transform="translate(-53.001065,-57.968669)"><tspan
         sodipodi:role="line"
         id="tspan10"
         x="168.02774"
         y="129.90981"
         style="stroke-width:0.913513"><tspan
   style="font-weight:bold;stroke-width:0.913513"
   id="tspan14">Re</tspan>Suber</tspan></text>
    <path
       id="path22"
       d="m 92.701418,130.60582 c 5.92925,0.0352 8.199952,-2.26736 13.664602,-5.52573 2.74054,-2.57323 3.0905,-4.82405 2.49125,-8.3869 -0.13055,-0.3211 -0.21689,-0.66384 -0.39161,-0.96315 -2.04591,-3.50502 -7.32233,2.04079 -8.38026,2.9287 -0.378591,0.31765 -0.124981,0.98059 -0.187481,1.47086 0.291341,4.55826 3.277691,7.89414 6.530891,10.78341 1.02037,0.70506 1.55155,1.22495 2.79195,1.49558 2.00063,0.43648 3.87362,-0.39713 5.53875,-1.42238 2.68282,-1.65192 5.30397,-3.40191 7.95595,-5.1029 4.89126,-4.36936 8.57012,-9.9001 11.35231,-15.80899 0.573,-1.21696 1.05668,-2.474 1.58501,-3.71098 1.0463,-2.59843 1.95829,-5.25001 2.53574,-7.993817 0.0442,-0.210373 0.45215,-1.86692 0.17355,-2.317544 -0.14555,-0.235464 -0.47856,-0.278448 -0.71783,-0.417666 -2.20842,1.430359 -4.55942,2.661543 -6.62523,4.291084 -0.5194,0.409713 -0.67964,1.135733 -0.99307,1.718323 -0.43145,0.80199 -0.87602,1.59961 -1.24079,2.43407 -1.39833,3.19867 -2.32749,6.58695 -3.26656,9.93859 -0.88541,4.12157 -1.85646,8.48686 -1.02353,12.70033 0.25681,0.5894 0.28478,0.9762 0.97089,1.2337 1.40771,0.52831 4.80596,-0.77505 6.22484,-1.20708 0.92107,-0.19404 3.64026,-1.53278 4.4593,-0.47602 0.29411,0.37945 0.3026,1.2985 0.3393,1.69536 0.10396,1.00446 -0.47749,2.62607 0.48389,3.38271 0.79816,0.62821 1.50934,0.49353 2.48085,0.55505 3.10265,-0.27277 6.12828,-1.04778 9.19883,-1.53746 0,0 5.45543,-4.0912 5.45543,-4.0912 v 0 c -3.0659,0.44684 -6.06934,1.23463 -9.14304,1.63767 -0.2737,0.0109 -1.63182,0.14119 -2.07807,-0.057 -0.62758,-0.27829 -0.2325,-2.50444 -0.34644,-3.06589 -0.15544,-1.06206 -0.25483,-2.37238 -1.42874,-2.86079 -1.30829,-0.54434 -2.8404,0.41887 -4.06737,0.67775 -1.65444,0.51518 -3.30712,1.06528 -4.99665,1.45774 -0.18611,0.0432 -0.98076,0.2997 -1.2562,0.0207 -0.15099,-0.1533 -0.17936,-0.39139 -0.26906,-0.58711 -0.82693,-4.08628 0.11351,-8.33101 0.98706,-12.32558 0.94948,-3.33817 1.89969,-6.68366 3.38042,-9.83713 0.39005,-0.83062 0.84976,-1.62766 1.3165,-2.417748 0.33711,-0.570666 1.74171,-1.797124 1.093,-1.661056 -1.87324,0.392937 -3.44144,1.676394 -5.16217,2.51461 0.0473,-0.184068 -0.0109,-0.665799 0.14173,-0.55215 0.18634,0.139035 0.0698,0.463971 0.0506,0.695673 -0.0389,0.466171 -0.13165,0.926761 -0.2237,1.385391 -0.53884,2.68513 -1.42468,5.27886 -2.44158,7.818 -0.52843,1.2196 -1.01069,2.46027 -1.58531,3.65886 -2.82014,5.88226 -6.59361,11.33825 -11.57227,15.59397 1.16258,-0.53587 2.2549,-1.2628 3.4877,-1.60764 0.73732,-0.20613 -1.27886,0.85117 -1.96893,1.1828 -1.46014,0.70178 -3.0287,0.94847 -4.53208,0.24135 -0.47336,-0.2227 -0.88179,-0.56289 -1.32269,-0.84435 -2.66738,-2.27298 -5.3051,-4.89002 -6.028,-8.47456 -0.11254,-0.55771 -0.0783,-1.13523 -0.11747,-1.70281 0.93809,-3.12313 0.71266,-1.3302 -4.99324,1.54161 -0.16596,0.0835 0.29523,-0.26448 0.48006,-0.28313 0.75943,-0.0776 1.14286,0.96567 1.31822,1.46704 0.52662,3.36434 -0.069,5.45666 -2.78346,7.6762 10.94512,-5.93683 4.22963,-2.19813 3.10137,-1.76993 -1.5457,0.58661 -3.228551,0.75018 -4.866012,0.79566 0,0 -5.58119,4.01667 -5.58119,4.01667 z"
       style="fill:#951c1c;fill-opacity:1;stroke-width:0.914948;stroke-miterlimit:4;stroke-dasharray:none"
       transform="translate(-53.001065,-57.968669)" />
    <path
       id="path22-3"
       d="m 98.275218,136.27255 c 5.929222,0.0353 8.199932,-2.26739 13.664592,-5.52575 2.74052,-2.57321 3.09049,-4.82403 2.49124,-8.38688 -0.13053,-0.32111 -0.21689,-0.66385 -0.39161,-0.96316 -2.0459,-3.50505 -7.32232,2.04081 -8.38026,2.92872 -0.37859,0.31765 -0.12498,0.98058 -0.18748,1.47086 0.29135,4.55824 3.27769,7.89412 6.53089,10.78339 1.02038,0.70507 1.55155,1.22496 2.79196,1.49559 2.00062,0.43647 3.8736,-0.39712 5.53873,-1.42239 2.68282,-1.65192 5.30398,-3.40193 7.95596,-5.10291 4.89126,-4.36934 8.57011,-9.90007 11.35231,-15.809 0.57302,-1.21693 1.05668,-2.47396 1.58501,-3.71094 1.0463,-2.59844 1.95829,-5.25004 2.53574,-7.99384 0.0443,-0.21037 0.45215,-1.86692 0.17356,-2.31754 -0.14556,-0.23547 -0.47856,-0.27845 -0.71784,-0.41767 -2.2084,1.43036 -4.55941,2.66155 -6.62523,4.29109 -0.5194,0.40972 -0.67964,1.13573 -0.99306,1.71832 -0.43145,0.80199 -0.87603,1.59962 -1.24079,2.43407 -1.39832,3.19869 -2.3275,6.58695 -3.26655,9.93857 -0.88543,4.12159 -1.85648,8.48688 -1.02353,12.70034 0.25679,0.5894 0.28477,0.9762 0.97087,1.2337 1.40771,0.52833 4.80596,-0.77505 6.22484,-1.20709 0.92107,-0.19403 3.64026,-1.53275 4.4593,-0.47601 0.2941,0.37945 0.30261,1.2985 0.33929,1.69535 0.10408,1.00449 -0.47747,2.62609 0.4839,3.38273 0.79817,0.62821 1.50934,0.49352 2.48085,0.55504 3.10267,-0.27274 6.12828,-1.04777 9.19884,-1.53744 0,0 5.45543,-4.09121 5.45543,-4.09121 v 0 c -3.06593,0.44683 -6.06934,1.23463 -9.14304,1.63764 -0.27371,0.009 -1.63182,0.14123 -2.07806,-0.0569 -0.62758,-0.27827 -0.23252,-2.50444 -0.34645,-3.06587 -0.15544,-1.06206 -0.25484,-2.37237 -1.42875,-2.86079 -1.30829,-0.54433 -2.84039,0.41889 -4.06736,0.67776 -1.65445,0.51516 -3.30713,1.06527 -4.99666,1.45773 -0.18611,0.0432 -0.98077,0.29969 -1.2562,0.0208 -0.15097,-0.15329 -0.17936,-0.3914 -0.26906,-0.58713 -0.82693,-4.08626 0.1135,-8.33102 0.98707,-12.32559 0.94946,-3.33812 1.89969,-6.68363 3.38043,-9.83709 0.39004,-0.83063 0.84975,-1.62767 1.31647,-2.41775 0.33713,-0.57068 1.74171,-1.79713 1.09303,-1.66105 -1.87325,0.39293 -3.44146,1.67639 -5.16219,2.5146 0.0473,-0.18406 -0.0109,-0.66579 0.14173,-0.55214 0.18635,0.13903 0.0698,0.46396 0.0507,0.69566 -0.0389,0.46618 -0.13166,0.92677 -0.22369,1.3854 -0.53887,2.68513 -1.42471,5.27887 -2.44161,7.81798 -0.52843,1.21961 -1.01068,2.46028 -1.5853,3.65884 -2.82014,5.88231 -6.5936,11.33827 -11.57227,15.594 1.16258,-0.53587 2.25489,-1.26281 3.48769,-1.60765 0.73735,-0.20613 -1.27885,0.85118 -1.96892,1.18279 -1.46014,0.7018 -3.02869,0.94849 -4.53207,0.24135 -0.47336,-0.22269 -0.8818,-0.56288 -1.32271,-0.84434 -2.66737,-2.27297 -5.30508,-4.89 -6.02799,-8.47455 -0.11242,-0.5577 -0.0783,-1.13521 -0.11748,-1.7028 0.93811,-3.12317 0.71268,-1.33021 -4.99323,1.54161 -0.16597,0.0835 0.29523,-0.26448 0.48006,-0.28313 0.75942,-0.0776 1.14285,0.96567 1.31821,1.46704 0.52664,3.36431 -0.069,5.45665 -2.78345,7.67618 10.94514,-5.93681 4.22963,-2.19812 3.10136,-1.76993 -1.5457,0.58661 -3.22853,0.7502 -4.86599,0.79566 0,0 -5.581212,4.01668 -5.581212,4.01668 z"
       style="fill:#1c7ac9;fill-opacity:1;stroke-width:0.913513"
       transform="translate(-53.001065,-57.968669)" />
  </g>
</svg>
